<svg width="1280" height="720" viewBox="0 0 1280 720" fill="none" xmlns="http://www.w3.org/2000/svg">
<g clip-path="url(#clip0)">
<rect width="1280" height="720" fill="white"/>
<path d="M19.2807 644.996C392.841 655.085 716.424 577.522 956.78 490.947C1234.37 390.962 1369.49 262.402 1369.49 261.508C1369.49 259.842 1195.3 1348.99 388.47 1327.2C-418.359 1305.41 -1527.17 194.481 -1521.98 199.119C-1516.79 203.756 -787.547 623.206 19.2807 644.996Z" fill="#FFC857"/>
<g clip-path="url(#clip1)">
<path d="M393.996 651.94C734.545 610.439 1022.55 504.442 1234.14 402.202C1478.49 284.124 1590.98 161.803 1590.91 161.077C1590.77 159.726 1520.49 1066.91 784.957 1156.55C49.4269 1246.19 -1048.87 491.979 -1043.78 495.053C-1038.69 498.127 -341.534 741.575 393.996 651.94Z" fill="#E6B95C"/>
</g>
<g clip-path="url(#clip2)">
<path d="M507.176 664.88C1125.87 582.898 1538.4 271.927 1538.28 270.881C1538.2 270.176 1547.61 612.336 1332.83 843.804C1229.09 955.596 1037.09 1022.64 836.015 1049.29C217.323 1131.27 -706.486 565.467 -702.201 567.763C-697.916 570.058 -111.517 746.862 507.176 664.88Z" fill="#384F77"/>
</g>
</g>
<defs>
<clipPath id="clip0">
<rect width="1280" height="720" fill="white"/>
</clipPath>
<clipPath id="clip1">
<rect width="2843" height="1958" fill="white" transform="translate(-878.623 -482) rotate(9.59536)"/>
</clipPath>
<clipPath id="clip2">
<rect width="2415.16" height="1422.76" fill="white" transform="translate(-633.709 -109) rotate(5.78025)"/>
</clipPath>
</defs>
</svg>
